<svg xmlns="http://www.w3.org/2000/svg" xmlns:xlink="http://www.w3.org/1999/xlink" id="Layer_2" data-name="Layer 2" viewBox="0 0 3167 1472.27"><defs><style>      .cls-1 {        fill: none;      }      .cls-2 {        clip-path: url(#clippath);      }      .cls-3 {        fill: #02bab5;      }      .cls-4 {        fill: #1c3f2d;      }    </style><clipPath id="clippath"><rect class="cls-1" width="3167" height="1472.27"></rect></clipPath></defs><g id="Layer_1-2" data-name="Layer 1"><g class="cls-2"><path class="cls-4" d="M2695.26,843.9c7.21,16.37,11.1,33.65,11.1,52.99s-3.89,36.17-11.1,53c-7.21,16.48-16.94,30.9-28.96,43.38-12.02,12.13-26.56,21.74-42.92,28.96-16.37,6.75-34.23,10.18-52.53,10.18-19.23,0-37.09-3.43-54.03-10.18-16.37-7.21-30.79-16.82-42.35-28.96-12.14-12.48-21.75-26.9-28.51-43.38-7.21-16.82-10.53-34.68-10.53-53.91s3.78-35.71,10.98-52.08c7.33-16.48,16.94-30.45,29.42-42.47,12.59-11.56,26.55-21.17,42.92-28.96,15.91-7.21,33.76-10.53,52.08-10.53s34.68,3.31,51.62,10.07c16.37,7.21,30.78,16.82,43.38,28.96,12.02,12.48,22.2,26.44,29.41,42.92"></path><path class="cls-4" d="M1811.07,953.78c-6.76-16.37-10.65-33.77-10.65-52.08s3.89-36.17,11.1-52.53c7.21-16.83,16.94-31.36,28.96-43.38,12.02-12.6,26.1-22.21,42.47-28.96,15.91-7.21,33.76-10.64,52.08-10.64,19.23,0,37.08,3.89,53.91,11.1,16.48,7.32,30.9,17.4,42.92,29.41,12.59,12.59,22.21,27.01,28.51,43.38,6.75,16.94,10.07,34.34,10.07,52.65s-3.78,34.68-11.1,51.05c-7.21,16.37-16.82,30.33-28.84,42.92-12.13,12.02-26.1,21.63-42.47,28.96-15.91,6.75-33.3,10.07-52.08,10.07s-36.17-3.31-52.53-10.64c-16.37-7.67-30.91-17.29-43.38-28.84-12.59-12.14-21.74-26.1-28.96-42.47"></path><path class="cls-4" d="M1786.46,604.23l-124.41,238.18-62.15,119.04-10.18,19.34-62.15,118.58-50.7,96.49h-139.3l-91.57-201.1-29.42-64.55-27.01-59.87-141.24,325.52h-142.73l-303.77-594.04h233.38l142.73,312.47,147.54-312.47h131.63l59.75,129.68,29.88,64.1,58.83,128.31,122.01-263.71,27.01-58.38h232.81l-.92,2.41ZM0,0V1472.28H1597.03v-350.24l251.69-492.74c38.57-28.96,85.85-43.38,140.78-43.38,42.35,0,81.95,8.24,118.58,24.61,36.63,16.83,68.44,39.49,95.46,67.99,19.8,20.72,36.17,44.3,49.1,70.39,5.38,9.61,9.73,19.8,14.08,30.33,14.88,38.57,22.09,79.55,22.09,123.5s-7.21,84.81-22.09,122.92c-4.81,12.02-10.19,23.12-16.48,34.23-12.48,24.04-27.93,45.79-46.24,65.02-26.55,28.5-57.8,51.16-94.54,67.07-36.06,16.37-75.66,24.61-118.12,24.61-73.71,0-135.4-25.64-185.08-76.69v332.39h612.47c-32.73-10.99-61.69-25.53-86.99-43.61-28.96-20.26-52.53-44.29-70.85-71.88-18.88-26.9-30.9-56.88-37.2-89.62h236.25c14.53,39.49,47.73,59.29,99.35,59.29,43.83,0,77.6-12.48,101.29-37.08,23.58-24.61,35.14-58.83,35.14-103.24v-56.43c-15.45,14.53-30.33,26.55-44.41,36.17-14.42,9.73-28.85,17.85-43.38,24.15-14.88,5.83-30.33,10.65-46.24,13.05-16.37,2.86-34.23,4.35-53.56,4.35-42.35,0-81.38-7.78-116.64-22.2-35.71-14.42-66.04-35.25-92.02-61.24l-.57-.46c15-22.2,27.47-45.78,37.66-71.42,18.31-46.24,27.46-96.37,27.46-149.36s-9.15-103.24-27.46-150.06c-9.62-24.95-21.75-48.19-35.71-69.82,1.03-1.49,2.4-2.4,3.43-3.89,26.44-28.96,57.8-51.61,94.43-68.44,36.74-16.37,76.69-24.61,120.07-24.61,70.39,0,129.23,26.1,176.96,78.63v-62.72h206.37V0H0Z"></path><path class="cls-3" d="M3167,1339.83c0-73.14-59.3-132.44-132.44-132.44s-132.44,59.3-132.44,132.44,59.3,132.44,132.44,132.44,132.44-59.3,132.44-132.44"></path></g></g></svg>